name Walk7.mot
datacolumns 19
datarows 15
range 2.60800000 2.62200000
endheader

                time	   L_ground_force_vx	   L_ground_force_vy	   L_ground_force_vz	   L_ground_force_px	   L_ground_force_py	   L_ground_force_pz	   R_ground_force_vx	   R_ground_force_vy	   R_ground_force_vz	   R_ground_force_px	   R_ground_force_py	   R_ground_force_pz	   L_ground_torque_x	   L_ground_torque_y	   L_ground_torque_z	   R_ground_torque_x	   R_ground_torque_y	   R_ground_torque_z	
          2.60800000	         57.90387182	        936.93939681	         62.94825259	         -0.37670098	          0.00000000	         -0.07482308	          0.00427277	         -0.04166387	         -0.00259672	         -0.00000660	          0.00000000	         -0.00000352	          0.00000000	         -1.61492817	          0.00000000	          0.00000000	         -0.00049065	          0.00000000	
          2.60900000	         58.47251287	        937.52174130	         62.99472628	         -0.37640513	          0.00000000	         -0.07491458	          0.00414952	         -0.04123218	         -0.00251895	         -0.00000601	          0.00000000	         -0.00000315	          0.00000000	         -1.59617142	          0.00000000	          0.00000000	         -0.00047336	          0.00000000	
          2.61000000	         59.03994334	        938.09698405	         63.04574882	         -0.37610642	          0.00000000	         -0.07500706	          0.00399769	         -0.04059008	         -0.00242355	         -0.00000535	          0.00000000	         -0.00000272	          0.00000000	         -1.57727028	          0.00000000	          0.00000000	         -0.00045252	          0.00000000	
          2.61100000	         59.60588416	        938.66488687	         63.10136680	         -0.37580471	          0.00000000	         -0.07510054	          0.00381523	         -0.03972068	         -0.00230927	         -0.00000461	          0.00000000	         -0.00000224	          0.00000000	         -1.55820381	          0.00000000	          0.00000000	         -0.00042786	          0.00000000	
          2.61200000	         60.17006700	        939.22526092	         63.16161523	         -0.37549992	          0.00000000	         -0.07519500	          0.00360006	         -0.03860645	         -0.00217484	         -0.00000377	          0.00000000	         -0.00000171	          0.00000000	         -1.53895018	          0.00000000	          0.00000000	         -0.00039915	          0.00000000	
          2.61300000	         60.73223470	        939.77796377	         63.22651726	         -0.37519191	          0.00000000	         -0.07529046	          0.00335003	         -0.03722924	         -0.00201894	         -0.00000284	          0.00000000	         -0.00000112	          0.00000000	         -1.51948689	          0.00000000	          0.00000000	         -0.00036612	          0.00000000	
          2.61400000	         61.29214170	        940.32289563	         63.29608402	         -0.37488061	          0.00000000	         -0.07538691	          0.00306293	         -0.03557030	         -0.00184021	         -0.00000182	          0.00000000	         -0.00000048	          0.00000000	         -1.49979104	          0.00000000	          0.00000000	         -0.00032851	          0.00000000	
          2.61500000	         61.84955435	        940.85999525	         63.37031472	         -0.37456591	          0.00000000	         -0.07548435	          0.00273650	         -0.03361030	         -0.00163727	         -0.00000069	          0.00000000	          0.00000023	          0.00000000	         -1.47983953	          0.00000000	          0.00000000	         -0.00028605	          0.00000000	
          2.61600000	         62.40425126	        941.38923651	         63.44919663	         -0.37424771	          0.00000000	         -0.07558279	          0.00236843	         -0.03132936	         -0.00140871	          0.00000055	          0.00000000	          0.00000101	          0.00000000	         -1.45960915	          0.00000000	          0.00000000	         -0.00023846	          0.00000000	
          2.61700000	         62.95602355	        941.91062594	         63.53270532	         -0.37392593	          0.00000000	         -0.07568221	          0.00195639	         -0.02870708	         -0.00115310	          0.00000189	          0.00000000	          0.00000185	          0.00000000	         -1.43907664	          0.00000000	          0.00000000	         -0.00018547	          0.00000000	
          2.61800000	         63.50467488	        942.42420132	         63.62080476	         -0.37360048	          0.00000000	         -0.07578263	          0.00149797	         -0.02572256	         -0.00086897	          0.00000336	          0.00000000	          0.00000276	          0.00000000	         -1.41821861	          0.00000000	          0.00000000	         -0.00012678	          0.00000000	
          2.61900000	         64.05002106	        942.93003066	         63.71344761	         -0.37327126	          0.00000000	         -0.07588403	          0.00099077	         -0.02235448	         -0.00055485	          0.00000495	          0.00000000	          0.00000375	          0.00000000	         -1.39701147	          0.00000000	          0.00000000	         -0.00006212	          0.00000000	
          2.62000000	         64.59188921	        943.42821089	         63.81057560	         -0.37293821	          0.00000000	         -0.07598641	          0.00043234	         -0.01858109	         -0.00020925	          0.00000667	          0.00000000	          0.00000481	          0.00000000	         -1.37543139	          0.00000000	          0.00000000	          0.00000881	          0.00000000	
          2.62100000	         65.13011661	        943.91886566	         63.91211998	         -0.37260123	          0.00000000	         -0.07608978	         -0.00017976	         -0.01438032	          0.00016934	          0.00000851	          0.00000000	          0.00000595	          0.00000000	         -1.35345449	          0.00000000	          0.00000000	          0.00008629	          0.00000000	
          2.62200000	         65.66454934	        944.40214239	         64.01800210	         -0.37226026	          0.00000000	         -0.07619411	         -0.00084800	         -0.00972981	          0.00058240	          0.00001050	          0.00000000	          0.00000717	          0.00000000	         -1.33105705	          0.00000000	          0.00000000	          0.00017062	          0.00000000	
